<mxfile host="65bd71144e">
    <diagram id="fzrhBRSE6GCZi_UyN0PS" name="Page-1">
        <mxGraphModel dx="1052" dy="586" grid="1" gridSize="4" guides="1" tooltips="1" connect="1" arrows="1" fold="1" page="1" pageScale="1" pageWidth="850" pageHeight="1100" math="0" shadow="0">
            <root>
                <mxCell id="0"/>
                <mxCell id="1" parent="0"/>
                <mxCell id="2" value="[Scala]&lt;br&gt;RDD" style="rounded=0;whiteSpace=wrap;html=1;" vertex="1" parent="1">
                    <mxGeometry x="192" y="48" width="128" height="48" as="geometry"/>
                </mxCell>
                <mxCell id="4" value="[Java]&lt;br&gt;JavaRDD" style="rounded=0;whiteSpace=wrap;html=1;" vertex="1" parent="1">
                    <mxGeometry x="32" y="176" width="128" height="48" as="geometry"/>
                </mxCell>
                <mxCell id="6" value="[Python]&lt;br&gt;PythonRDD" style="rounded=0;whiteSpace=wrap;html=1;" vertex="1" parent="1">
                    <mxGeometry x="191" y="176" width="128" height="48" as="geometry"/>
                </mxCell>
                <mxCell id="10" value="Extends" style="endArrow=block;endSize=16;endFill=0;html=1;entryX=0.5;entryY=1;entryDx=0;entryDy=0;exitX=0.5;exitY=0;exitDx=0;exitDy=0;" edge="1" parent="1" source="6" target="2">
                    <mxGeometry width="160" relative="1" as="geometry">
                        <mxPoint x="256" y="160" as="sourcePoint"/>
                        <mxPoint x="416" y="288" as="targetPoint"/>
                    </mxGeometry>
                </mxCell>
                <mxCell id="11" value="" style="endArrow=diamondThin;endFill=0;endSize=24;html=1;entryX=0.5;entryY=0;entryDx=0;entryDy=0;exitX=0.25;exitY=1;exitDx=0;exitDy=0;edgeStyle=orthogonalEdgeStyle;" edge="1" parent="1" source="2" target="4">
                    <mxGeometry width="160" relative="1" as="geometry">
                        <mxPoint x="256" y="288" as="sourcePoint"/>
                        <mxPoint x="416" y="288" as="targetPoint"/>
                    </mxGeometry>
                </mxCell>
                <mxCell id="12" value="Aggregates" style="edgeLabel;html=1;align=center;verticalAlign=middle;resizable=0;points=[];" vertex="1" connectable="0" parent="11">
                    <mxGeometry x="0.6362" y="1" relative="1" as="geometry">
                        <mxPoint x="62" y="-2" as="offset"/>
                    </mxGeometry>
                </mxCell>
                <mxCell id="13" value="[R]&lt;br&gt;RRDD" style="rounded=0;whiteSpace=wrap;html=1;" vertex="1" parent="1">
                    <mxGeometry x="352" y="176" width="128" height="48" as="geometry"/>
                </mxCell>
                <mxCell id="14" value="Extends" style="endArrow=block;endSize=16;endFill=0;html=1;entryX=0.75;entryY=1;entryDx=0;entryDy=0;exitX=0.5;exitY=0;exitDx=0;exitDy=0;edgeStyle=orthogonalEdgeStyle;" edge="1" parent="1" source="13" target="2">
                    <mxGeometry width="160" relative="1" as="geometry">
                        <mxPoint x="260" y="164" as="sourcePoint"/>
                        <mxPoint x="260" y="100" as="targetPoint"/>
                    </mxGeometry>
                </mxCell>
                <mxCell id="15" value="[Scala]&lt;br&gt;MediaRDD" style="rounded=0;whiteSpace=wrap;html=1;strokeWidth=1;strokeColor=#990000;fontColor=#990000;" vertex="1" parent="1">
                    <mxGeometry x="592" y="48" width="128" height="48" as="geometry"/>
                </mxCell>
                <mxCell id="16" value="" style="endArrow=diamondThin;endFill=0;endSize=24;html=1;entryX=0;entryY=0.5;entryDx=0;entryDy=0;exitX=1;exitY=0.5;exitDx=0;exitDy=0;strokeColor=#990000;" edge="1" parent="1" source="2" target="15">
                    <mxGeometry width="160" relative="1" as="geometry">
                        <mxPoint x="268" y="304" as="sourcePoint"/>
                        <mxPoint x="428" y="304" as="targetPoint"/>
                    </mxGeometry>
                </mxCell>
                <mxCell id="17" value="[Python]&lt;br&gt;PythonMediaRDD" style="rounded=0;whiteSpace=wrap;html=1;strokeWidth=1;strokeColor=#990000;fontColor=#990000;" vertex="1" parent="1">
                    <mxGeometry x="512" y="176" width="128" height="48" as="geometry"/>
                </mxCell>
                <mxCell id="18" value="[R]&lt;br&gt;RMediaRDD" style="rounded=0;whiteSpace=wrap;html=1;strokeWidth=1;strokeColor=#990000;fontColor=#990000;" vertex="1" parent="1">
                    <mxGeometry x="672" y="176" width="128" height="48" as="geometry"/>
                </mxCell>
                <mxCell id="19" value="Extends" style="endArrow=block;endSize=16;endFill=0;html=1;strokeColor=#990000;fontColor=#990000;entryX=0.5;entryY=1;entryDx=0;entryDy=0;exitX=0.5;exitY=0;exitDx=0;exitDy=0;edgeStyle=orthogonalEdgeStyle;" edge="1" parent="1" source="17" target="15">
                    <mxGeometry width="160" relative="1" as="geometry">
                        <mxPoint x="452" y="316" as="sourcePoint"/>
                        <mxPoint x="612" y="316" as="targetPoint"/>
                    </mxGeometry>
                </mxCell>
                <mxCell id="20" value="Extends" style="endArrow=block;endSize=16;endFill=0;html=1;strokeColor=#990000;fontColor=#990000;entryX=0.5;entryY=1;entryDx=0;entryDy=0;exitX=0.5;exitY=0;exitDx=0;exitDy=0;edgeStyle=orthogonalEdgeStyle;" edge="1" parent="1" source="18" target="15">
                    <mxGeometry width="160" relative="1" as="geometry">
                        <mxPoint x="368" y="360" as="sourcePoint"/>
                        <mxPoint x="528" y="360" as="targetPoint"/>
                    </mxGeometry>
                </mxCell>
            </root>
        </mxGraphModel>
    </diagram>
</mxfile>